<svg xmlns="http://www.w3.org/2000/svg" id="Layer_2" data-name="Layer 2" viewBox="0 0 86.91 96.81"><defs><style>      .cls-1 {        fill: #7c5fa9;        stroke-width: 0px;      }    </style></defs><g id="Layer_1-2" data-name="Layer 1"><g><g><path class="cls-1" d="M76.43,83.97l-22.19-27.41c-2.76,5.64-8.14,13.94-8.14,13.94l18.94,26.31-1.74-15.9,13.14,3.06Z"></path><path class="cls-1" d="M46.95,63.18c2.5-3.89,4.44-7.15,6.1-10.14.59-1.07,1.15-2.1,1.67-3.11l3.14-6.74c3.18-8.77.58-14.22.58-14.22,0,0-1.02-3.93-3.58-10.46-2.56-6.52-7.01-7.2-7.01-7.2-10.02-2.08-13.59,2.25-14.99,5.49-1.4,3.23-4.2,11.71-4.2,11.71-4.4,11.67,5.24,23.89,5.24,23.89l7.67-11.67c-5.58-7.92-5.96-17.81-5.96-17.81,9.28-2.64,15.51,0,15.51,0,0,0,3.05,2.39-7.27,19.43-10.33,17.03-31.99,40.7-31.99,40.7l13.63-2.73-2.04,16.49c11.38-15.7,18.52-25.9,23.49-33.63Z"></path></g><path class="cls-1" d="M1.62,54.02s-.17-.53-.43-1.53c-.25-1.01-.61-2.5-.86-4.44-.06-.49-.12-1-.17-1.54l-.04-.41-.02-.45c0-.28-.02-.56-.03-.85-.02-.58-.03-1.19-.05-1.81,0-.63-.07-1.27.02-1.97.13-1.38.19-2.89.42-4.44.15-.77.3-1.55.45-2.35.15-.81.31-1.64.59-2.45.5-1.64.99-3.38,1.78-5.07.38-.85.7-1.75,1.16-2.6.47-.85.94-1.7,1.42-2.58,2.07-3.38,4.6-6.83,7.88-9.75.4-.37.78-.77,1.2-1.13l1.31-1.03,1.33-1.03c.44-.35.89-.69,1.38-.98.96-.61,1.92-1.21,2.89-1.83,1-.55,2.05-1.04,3.08-1.56,4.2-1.92,8.75-3.36,13.43-3.87l.87-.13.88-.04,1.76-.08,1.76-.08h.22s.05-.01.05-.01h.2s.1.01.1.01l.41.02.82.04c1.11.08,2.15.07,3.31.22,1.19.19,2.37.37,3.55.56,4.57.93,8.84,2.53,12.71,4.61,3.81,2.18,7.16,4.79,9.98,7.6.68.73,1.32,1.48,1.96,2.19.32.36.63.72.95,1.08.28.38.56.77.83,1.14.54.76,1.08,1.5,1.6,2.23.45.77.9,1.53,1.33,2.28.91,1.46,1.51,3,2.17,4.41.34.7.55,1.43.79,2.13.23.7.46,1.37.68,2.03.75,2.66,1.21,5.01,1.38,6.96.31,1.93.19,3.48.22,4.52,0,1.04,0,1.59,0,1.59,0,0-.12-.54-.34-1.56-.22-1.01-.46-2.5-1.06-4.32-.47-1.84-1.34-3.99-2.36-6.39-1.14-2.36-2.53-4.94-4.43-7.49-.47-.64-.95-1.29-1.44-1.95-.55-.61-1.1-1.24-1.67-1.87-.28-.32-.56-.64-.85-.96-.31-.3-.63-.6-.95-.9-.64-.6-1.27-1.22-1.93-1.82-2.75-2.31-5.88-4.41-9.34-6.16-3.5-1.65-7.33-2.87-11.27-3.6-.96-.13-1.93-.26-2.9-.4-.46-.09-1.07-.06-1.59-.1l-1.64-.07-.82-.04-.41-.02h-.1c-.15,0,.14,0,.1,0h-.05s-.19.01-.19.01l-1.53.09-1.53.08-.77.04-.76.12-3.03.45c-1,.21-1.98.49-2.97.73-1,.21-1.95.59-2.91.92-.95.34-1.93.63-2.83,1.1-3.74,1.55-7.08,3.8-10.07,6.23-3.04,2.42-5.49,5.31-7.6,8.2-.5.74-1,1.48-1.48,2.2-.49.73-.84,1.51-1.27,2.25-.89,1.46-1.47,3-2.11,4.45-.35.72-.58,1.46-.81,2.18-.24.73-.47,1.43-.7,2.12-.42,1.39-.65,2.72-.97,3.98-.28,1.28-.33,2.57-.52,3.71-.04.29-.08.57-.12.85l-.05.37-.03.4c-.04.52-.07,1.02-.09,1.5-.07,1.9-.05,3.42,0,4.45.06,1.03.09,1.58.09,1.58Z"></path></g></g></svg>